<svg xmlns="http://www.w3.org/2000/svg" viewBox="0 0 1900 1000" role="img" aria-label="Flag of the United States of America">
<title>Flag of the United States</title>
<rect x="0" y="0.000" width="1900" height="76.923" fill="#B22234"/>
<rect x="0" y="76.923" width="1900" height="76.923" fill="#FFFFFF"/>
<rect x="0" y="153.846" width="1900" height="76.923" fill="#B22234"/>
<rect x="0" y="230.769" width="1900" height="76.923" fill="#FFFFFF"/>
<rect x="0" y="307.692" width="1900" height="76.923" fill="#B22234"/>
<rect x="0" y="384.615" width="1900" height="76.923" fill="#FFFFFF"/>
<rect x="0" y="461.538" width="1900" height="76.923" fill="#B22234"/>
<rect x="0" y="538.462" width="1900" height="76.923" fill="#FFFFFF"/>
<rect x="0" y="615.385" width="1900" height="76.923" fill="#B22234"/>
<rect x="0" y="692.308" width="1900" height="76.923" fill="#FFFFFF"/>
<rect x="0" y="769.231" width="1900" height="76.923" fill="#B22234"/>
<rect x="0" y="846.154" width="1900" height="76.923" fill="#FFFFFF"/>
<rect x="0" y="923.077" width="1900" height="76.923" fill="#B22234"/>
<rect x="0" y="0" width="760.000" height="538.462" fill="#3C3B6E"/>
<path d="M 63.33,23.05 L 70.25,44.33 L 92.63,44.33 L 74.52,57.48 L 81.44,78.76 L 63.33,65.61 L 45.23,78.76 L 52.14,57.48 L 34.04,44.33 L 56.42,44.33 Z" fill="#FFFFFF"/>
<path d="M 190.00,23.05 L 196.92,44.33 L 219.29,44.33 L 201.19,57.48 L 208.10,78.76 L 190.00,65.61 L 171.90,78.76 L 178.81,57.48 L 160.71,44.33 L 183.08,44.33 Z" fill="#FFFFFF"/>
<path d="M 316.67,23.05 L 323.58,44.33 L 345.96,44.33 L 327.86,57.48 L 334.77,78.76 L 316.67,65.61 L 298.56,78.76 L 305.48,57.48 L 287.37,44.33 L 309.75,44.33 Z" fill="#FFFFFF"/>
<path d="M 443.33,23.05 L 450.25,44.33 L 472.63,44.33 L 454.52,57.48 L 461.44,78.76 L 443.33,65.61 L 425.23,78.76 L 432.14,57.48 L 414.04,44.33 L 436.42,44.33 Z" fill="#FFFFFF"/>
<path d="M 570.00,23.05 L 576.92,44.33 L 599.29,44.33 L 581.19,57.48 L 588.10,78.76 L 570.00,65.61 L 551.90,78.76 L 558.81,57.48 L 540.71,44.33 L 563.08,44.33 Z" fill="#FFFFFF"/>
<path d="M 696.67,23.05 L 703.58,44.33 L 725.96,44.33 L 707.86,57.48 L 714.77,78.76 L 696.67,65.61 L 678.56,78.76 L 685.48,57.48 L 667.37,44.33 L 689.75,44.33 Z" fill="#FFFFFF"/>
<path d="M 126.67,76.89 L 133.58,98.17 L 155.96,98.17 L 137.86,111.33 L 144.77,132.61 L 126.67,119.46 L 108.56,132.61 L 115.48,111.33 L 97.37,98.17 L 119.75,98.17 Z" fill="#FFFFFF"/>
<path d="M 253.33,76.89 L 260.25,98.17 L 282.63,98.17 L 264.52,111.33 L 271.44,132.61 L 253.33,119.46 L 235.23,132.61 L 242.14,111.33 L 224.04,98.17 L 246.42,98.17 Z" fill="#FFFFFF"/>
<path d="M 380.00,76.89 L 386.92,98.17 L 409.29,98.17 L 391.19,111.33 L 398.10,132.61 L 380.00,119.46 L 361.90,132.61 L 368.81,111.33 L 350.71,98.17 L 373.08,98.17 Z" fill="#FFFFFF"/>
<path d="M 506.67,76.89 L 513.58,98.17 L 535.96,98.17 L 517.86,111.33 L 524.77,132.61 L 506.67,119.46 L 488.56,132.61 L 495.48,111.33 L 477.37,98.17 L 499.75,98.17 Z" fill="#FFFFFF"/>
<path d="M 633.33,76.89 L 640.25,98.17 L 662.63,98.17 L 644.52,111.33 L 651.44,132.61 L 633.33,119.46 L 615.23,132.61 L 622.14,111.33 L 604.04,98.17 L 626.42,98.17 Z" fill="#FFFFFF"/>
<path d="M 63.33,130.74 L 70.25,152.02 L 92.63,152.02 L 74.52,165.17 L 81.44,186.46 L 63.33,173.30 L 45.23,186.46 L 52.14,165.17 L 34.04,152.02 L 56.42,152.02 Z" fill="#FFFFFF"/>
<path d="M 190.00,130.74 L 196.92,152.02 L 219.29,152.02 L 201.19,165.17 L 208.10,186.46 L 190.00,173.30 L 171.90,186.46 L 178.81,165.17 L 160.71,152.02 L 183.08,152.02 Z" fill="#FFFFFF"/>
<path d="M 316.67,130.74 L 323.58,152.02 L 345.96,152.02 L 327.86,165.17 L 334.77,186.46 L 316.67,173.30 L 298.56,186.46 L 305.48,165.17 L 287.37,152.02 L 309.75,152.02 Z" fill="#FFFFFF"/>
<path d="M 443.33,130.74 L 450.25,152.02 L 472.63,152.02 L 454.52,165.17 L 461.44,186.46 L 443.33,173.30 L 425.23,186.46 L 432.14,165.17 L 414.04,152.02 L 436.42,152.02 Z" fill="#FFFFFF"/>
<path d="M 570.00,130.74 L 576.92,152.02 L 599.29,152.02 L 581.19,165.17 L 588.10,186.46 L 570.00,173.30 L 551.90,186.46 L 558.81,165.17 L 540.71,152.02 L 563.08,152.02 Z" fill="#FFFFFF"/>
<path d="M 696.67,130.74 L 703.58,152.02 L 725.96,152.02 L 707.86,165.17 L 714.77,186.46 L 696.67,173.30 L 678.56,186.46 L 685.48,165.17 L 667.37,152.02 L 689.75,152.02 Z" fill="#FFFFFF"/>
<path d="M 126.67,184.58 L 133.58,205.87 L 155.96,205.87 L 137.86,219.02 L 144.77,240.30 L 126.67,227.15 L 108.56,240.30 L 115.48,219.02 L 97.37,205.87 L 119.75,205.87 Z" fill="#FFFFFF"/>
<path d="M 253.33,184.58 L 260.25,205.87 L 282.63,205.87 L 264.52,219.02 L 271.44,240.30 L 253.33,227.15 L 235.23,240.30 L 242.14,219.02 L 224.04,205.87 L 246.42,205.87 Z" fill="#FFFFFF"/>
<path d="M 380.00,184.58 L 386.92,205.87 L 409.29,205.87 L 391.19,219.02 L 398.10,240.30 L 380.00,227.15 L 361.90,240.30 L 368.81,219.02 L 350.71,205.87 L 373.08,205.87 Z" fill="#FFFFFF"/>
<path d="M 506.67,184.58 L 513.58,205.87 L 535.96,205.87 L 517.86,219.02 L 524.77,240.30 L 506.67,227.15 L 488.56,240.30 L 495.48,219.02 L 477.37,205.87 L 499.75,205.87 Z" fill="#FFFFFF"/>
<path d="M 633.33,184.58 L 640.25,205.87 L 662.63,205.87 L 644.52,219.02 L 651.44,240.30 L 633.33,227.15 L 615.23,240.30 L 622.14,219.02 L 604.04,205.87 L 626.42,205.87 Z" fill="#FFFFFF"/>
<path d="M 63.33,238.43 L 70.25,259.71 L 92.63,259.71 L 74.52,272.87 L 81.44,294.15 L 63.33,281.00 L 45.23,294.15 L 52.14,272.87 L 34.04,259.71 L 56.42,259.71 Z" fill="#FFFFFF"/>
<path d="M 190.00,238.43 L 196.92,259.71 L 219.29,259.71 L 201.19,272.87 L 208.10,294.15 L 190.00,281.00 L 171.90,294.15 L 178.81,272.87 L 160.71,259.71 L 183.08,259.71 Z" fill="#FFFFFF"/>
<path d="M 316.67,238.43 L 323.58,259.71 L 345.96,259.71 L 327.86,272.87 L 334.77,294.15 L 316.67,281.00 L 298.56,294.15 L 305.48,272.87 L 287.37,259.71 L 309.75,259.71 Z" fill="#FFFFFF"/>
<path d="M 443.33,238.43 L 450.25,259.71 L 472.63,259.71 L 454.52,272.87 L 461.44,294.15 L 443.33,281.00 L 425.23,294.15 L 432.14,272.87 L 414.04,259.71 L 436.42,259.71 Z" fill="#FFFFFF"/>
<path d="M 570.00,238.43 L 576.92,259.71 L 599.29,259.71 L 581.19,272.87 L 588.10,294.15 L 570.00,281.00 L 551.90,294.15 L 558.81,272.87 L 540.71,259.71 L 563.08,259.71 Z" fill="#FFFFFF"/>
<path d="M 696.67,238.43 L 703.58,259.71 L 725.96,259.71 L 707.86,272.87 L 714.77,294.15 L 696.67,281.00 L 678.56,294.15 L 685.48,272.87 L 667.37,259.71 L 689.75,259.71 Z" fill="#FFFFFF"/>
<path d="M 126.67,292.28 L 133.58,313.56 L 155.96,313.56 L 137.86,326.71 L 144.77,347.99 L 126.67,334.84 L 108.56,347.99 L 115.48,326.71 L 97.37,313.56 L 119.75,313.56 Z" fill="#FFFFFF"/>
<path d="M 253.33,292.28 L 260.25,313.56 L 282.63,313.56 L 264.52,326.71 L 271.44,347.99 L 253.33,334.84 L 235.23,347.99 L 242.14,326.71 L 224.04,313.56 L 246.42,313.56 Z" fill="#FFFFFF"/>
<path d="M 380.00,292.28 L 386.92,313.56 L 409.29,313.56 L 391.19,326.71 L 398.10,347.99 L 380.00,334.84 L 361.90,347.99 L 368.81,326.71 L 350.71,313.56 L 373.08,313.56 Z" fill="#FFFFFF"/>
<path d="M 506.67,292.28 L 513.58,313.56 L 535.96,313.56 L 517.86,326.71 L 524.77,347.99 L 506.67,334.84 L 488.56,347.99 L 495.48,326.71 L 477.37,313.56 L 499.75,313.56 Z" fill="#FFFFFF"/>
<path d="M 633.33,292.28 L 640.25,313.56 L 662.63,313.56 L 644.52,326.71 L 651.44,347.99 L 633.33,334.84 L 615.23,347.99 L 622.14,326.71 L 604.04,313.56 L 626.42,313.56 Z" fill="#FFFFFF"/>
<path d="M 63.33,346.12 L 70.25,367.40 L 92.63,367.41 L 74.52,380.56 L 81.44,401.84 L 63.33,388.69 L 45.23,401.84 L 52.14,380.56 L 34.04,367.41 L 56.42,367.40 Z" fill="#FFFFFF"/>
<path d="M 190.00,346.12 L 196.92,367.40 L 219.29,367.41 L 201.19,380.56 L 208.10,401.84 L 190.00,388.69 L 171.90,401.84 L 178.81,380.56 L 160.71,367.41 L 183.08,367.40 Z" fill="#FFFFFF"/>
<path d="M 316.67,346.12 L 323.58,367.40 L 345.96,367.41 L 327.86,380.56 L 334.77,401.84 L 316.67,388.69 L 298.56,401.84 L 305.48,380.56 L 287.37,367.41 L 309.75,367.40 Z" fill="#FFFFFF"/>
<path d="M 443.33,346.12 L 450.25,367.40 L 472.63,367.41 L 454.52,380.56 L 461.44,401.84 L 443.33,388.69 L 425.23,401.84 L 432.14,380.56 L 414.04,367.41 L 436.42,367.40 Z" fill="#FFFFFF"/>
<path d="M 570.00,346.12 L 576.92,367.40 L 599.29,367.41 L 581.19,380.56 L 588.10,401.84 L 570.00,388.69 L 551.90,401.84 L 558.81,380.56 L 540.71,367.41 L 563.08,367.40 Z" fill="#FFFFFF"/>
<path d="M 696.67,346.12 L 703.58,367.40 L 725.96,367.41 L 707.86,380.56 L 714.77,401.84 L 696.67,388.69 L 678.56,401.84 L 685.48,380.56 L 667.37,367.41 L 689.75,367.40 Z" fill="#FFFFFF"/>
<path d="M 126.67,399.97 L 133.58,421.25 L 155.96,421.25 L 137.86,434.41 L 144.77,455.69 L 126.67,442.53 L 108.56,455.69 L 115.48,434.41 L 97.37,421.25 L 119.75,421.25 Z" fill="#FFFFFF"/>
<path d="M 253.33,399.97 L 260.25,421.25 L 282.63,421.25 L 264.52,434.41 L 271.44,455.69 L 253.33,442.53 L 235.23,455.69 L 242.14,434.41 L 224.04,421.25 L 246.42,421.25 Z" fill="#FFFFFF"/>
<path d="M 380.00,399.97 L 386.92,421.25 L 409.29,421.25 L 391.19,434.41 L 398.10,455.69 L 380.00,442.53 L 361.90,455.69 L 368.81,434.41 L 350.71,421.25 L 373.08,421.25 Z" fill="#FFFFFF"/>
<path d="M 506.67,399.97 L 513.58,421.25 L 535.96,421.25 L 517.86,434.41 L 524.77,455.69 L 506.67,442.53 L 488.56,455.69 L 495.48,434.41 L 477.37,421.25 L 499.75,421.25 Z" fill="#FFFFFF"/>
<path d="M 633.33,399.97 L 640.25,421.25 L 662.63,421.25 L 644.52,434.41 L 651.44,455.69 L 633.33,442.53 L 615.23,455.69 L 622.14,434.41 L 604.04,421.25 L 626.42,421.25 Z" fill="#FFFFFF"/>
<path d="M 63.33,453.82 L 70.25,475.10 L 92.63,475.10 L 74.52,488.25 L 81.44,509.53 L 63.33,496.38 L 45.23,509.53 L 52.14,488.25 L 34.04,475.10 L 56.42,475.10 Z" fill="#FFFFFF"/>
<path d="M 190.00,453.82 L 196.92,475.10 L 219.29,475.10 L 201.19,488.25 L 208.10,509.53 L 190.00,496.38 L 171.90,509.53 L 178.81,488.25 L 160.71,475.10 L 183.08,475.10 Z" fill="#FFFFFF"/>
<path d="M 316.67,453.82 L 323.58,475.10 L 345.96,475.10 L 327.86,488.25 L 334.77,509.53 L 316.67,496.38 L 298.56,509.53 L 305.48,488.25 L 287.37,475.10 L 309.75,475.10 Z" fill="#FFFFFF"/>
<path d="M 443.33,453.82 L 450.25,475.10 L 472.63,475.10 L 454.52,488.25 L 461.44,509.53 L 443.33,496.38 L 425.23,509.53 L 432.14,488.25 L 414.04,475.10 L 436.42,475.10 Z" fill="#FFFFFF"/>
<path d="M 570.00,453.82 L 576.92,475.10 L 599.29,475.10 L 581.19,488.25 L 588.10,509.53 L 570.00,496.38 L 551.90,509.53 L 558.81,488.25 L 540.71,475.10 L 563.08,475.10 Z" fill="#FFFFFF"/>
<path d="M 696.67,453.82 L 703.58,475.10 L 725.96,475.10 L 707.86,488.25 L 714.77,509.53 L 696.67,496.38 L 678.56,509.53 L 685.48,488.25 L 667.37,475.10 L 689.75,475.10 Z" fill="#FFFFFF"/>
</svg>